<mxfile host="Electron" modified="2023-09-12T18:18:04.024Z" agent="Mozilla/5.0 (Windows NT 10.0; Win64; x64) AppleWebKit/537.36 (KHTML, like Gecko) draw.io/21.6.8 Chrome/114.0.5735.289 Electron/25.5.0 Safari/537.36" etag="4n1Q9uowJ3MLiIjuBGZW" version="21.6.8" type="device">
  <diagram name="Page-1" id="ASehpmj4ztPe1-0Q4AMC">
    <mxGraphModel dx="619" dy="1214" grid="1" gridSize="10" guides="1" tooltips="1" connect="1" arrows="1" fold="1" page="0" pageScale="1" pageWidth="1169" pageHeight="827" math="0" shadow="0">
      <root>
        <mxCell id="0" />
        <mxCell id="1" parent="0" />
        <mxCell id="spFt9Daq1wORSKf747if-1" value="&lt;b&gt;Serwer sieciowy&lt;/b&gt;&lt;br&gt;Moduł Feather M0" style="rounded=1;whiteSpace=wrap;html=1;fontFamily=Arimo;" vertex="1" parent="1">
          <mxGeometry x="1040" y="-120" width="120" height="40" as="geometry" />
        </mxCell>
        <mxCell id="spFt9Daq1wORSKf747if-2" value="&lt;b&gt;LoRa MASTER&lt;br&gt;&lt;/b&gt;Moduł STM32 L152" style="rounded=1;whiteSpace=wrap;html=1;fontFamily=Arimo;" vertex="1" parent="1">
          <mxGeometry x="1200" width="120" height="40" as="geometry" />
        </mxCell>
        <mxCell id="spFt9Daq1wORSKf747if-3" value="&lt;b&gt;LoRa SLAVE 1&lt;br&gt;&lt;/b&gt;Moduł STM32 L152" style="rounded=1;whiteSpace=wrap;html=1;fontFamily=Arimo;" vertex="1" parent="1">
          <mxGeometry x="1040" y="120" width="120" height="40" as="geometry" />
        </mxCell>
        <mxCell id="spFt9Daq1wORSKf747if-4" value="&lt;b&gt;LoRa SLAVE 1&lt;br&gt;&lt;/b&gt;Moduł STM32 L152" style="rounded=1;whiteSpace=wrap;html=1;fontFamily=Arimo;" vertex="1" parent="1">
          <mxGeometry x="1200" y="120" width="120" height="40" as="geometry" />
        </mxCell>
        <mxCell id="spFt9Daq1wORSKf747if-5" value="&lt;b&gt;LoRa SLAVE 1&lt;br&gt;&lt;/b&gt;Moduł STM32 L152" style="rounded=1;whiteSpace=wrap;html=1;fontFamily=Arimo;" vertex="1" parent="1">
          <mxGeometry x="1360" y="120" width="120" height="40" as="geometry" />
        </mxCell>
        <mxCell id="spFt9Daq1wORSKf747if-6" value="&lt;b&gt;Użytkownik&lt;/b&gt;" style="rounded=1;whiteSpace=wrap;html=1;fontFamily=Arimo;" vertex="1" parent="1">
          <mxGeometry x="1360" y="-120" width="120" height="40" as="geometry" />
        </mxCell>
        <mxCell id="spFt9Daq1wORSKf747if-17" value="" style="endArrow=blockThin;html=1;rounded=0;fillColor=#d5e8d4;strokeColor=#82b366;endSize=8;startSize=4;startArrow=oval;startFill=1;endFill=1;strokeWidth=1.25;" edge="1" parent="1">
          <mxGeometry width="50" height="50" relative="1" as="geometry">
            <mxPoint x="1250" y="40" as="sourcePoint" />
            <mxPoint x="1080" y="120" as="targetPoint" />
            <Array as="points">
              <mxPoint x="1250" y="80" />
              <mxPoint x="1080" y="80" />
            </Array>
          </mxGeometry>
        </mxCell>
        <mxCell id="spFt9Daq1wORSKf747if-23" value="Zapytanie (LoRa)" style="edgeLabel;html=1;align=center;verticalAlign=middle;resizable=0;points=[];fontFamily=Arimo;fontSize=10;" vertex="1" connectable="0" parent="spFt9Daq1wORSKf747if-17">
          <mxGeometry x="0.24" relative="1" as="geometry">
            <mxPoint x="45" as="offset" />
          </mxGeometry>
        </mxCell>
        <mxCell id="spFt9Daq1wORSKf747if-18" value="" style="endArrow=blockThin;html=1;rounded=0;fillColor=#d5e8d4;strokeColor=#82b366;endSize=8;startSize=4;startArrow=oval;startFill=1;endFill=1;strokeWidth=1.25;" edge="1" parent="1">
          <mxGeometry width="50" height="50" relative="1" as="geometry">
            <mxPoint x="1250" y="40" as="sourcePoint" />
            <mxPoint x="1250" y="120" as="targetPoint" />
            <Array as="points">
              <mxPoint x="1250" y="80" />
            </Array>
          </mxGeometry>
        </mxCell>
        <mxCell id="spFt9Daq1wORSKf747if-19" value="" style="endArrow=blockThin;html=1;rounded=0;fillColor=#d5e8d4;strokeColor=#82b366;endSize=8;startSize=4;startArrow=oval;startFill=1;endFill=1;strokeWidth=1.25;" edge="1" parent="1">
          <mxGeometry width="50" height="50" relative="1" as="geometry">
            <mxPoint x="1250" y="40" as="sourcePoint" />
            <mxPoint x="1410" y="120" as="targetPoint" />
            <Array as="points">
              <mxPoint x="1250" y="80" />
              <mxPoint x="1410" y="80" />
            </Array>
          </mxGeometry>
        </mxCell>
        <mxCell id="spFt9Daq1wORSKf747if-20" value="" style="endArrow=oval;html=1;rounded=0;fillColor=#dae8fc;strokeColor=#6c8ebf;startArrow=blockThin;startFill=1;endFill=1;startSize=8;endSize=4;strokeWidth=1.25;" edge="1" parent="1">
          <mxGeometry width="50" height="50" relative="1" as="geometry">
            <mxPoint x="1270" y="40" as="sourcePoint" />
            <mxPoint x="1430" y="120" as="targetPoint" />
            <Array as="points">
              <mxPoint x="1270" y="90" />
              <mxPoint x="1430" y="90" />
            </Array>
          </mxGeometry>
        </mxCell>
        <mxCell id="spFt9Daq1wORSKf747if-24" value="Odpowiedź (LoRa)" style="edgeLabel;html=1;align=center;verticalAlign=middle;resizable=0;points=[];fontFamily=Arimo;fontSize=10;" vertex="1" connectable="0" parent="spFt9Daq1wORSKf747if-20">
          <mxGeometry x="0.0361" relative="1" as="geometry">
            <mxPoint as="offset" />
          </mxGeometry>
        </mxCell>
        <mxCell id="spFt9Daq1wORSKf747if-21" value="" style="endArrow=oval;html=1;rounded=0;fillColor=#dae8fc;strokeColor=#6c8ebf;startArrow=blockThin;startFill=1;endFill=1;startSize=8;endSize=4;strokeWidth=1.25;" edge="1" parent="1">
          <mxGeometry width="50" height="50" relative="1" as="geometry">
            <mxPoint x="1270" y="40" as="sourcePoint" />
            <mxPoint x="1270" y="120" as="targetPoint" />
            <Array as="points">
              <mxPoint x="1270" y="80" />
            </Array>
          </mxGeometry>
        </mxCell>
        <mxCell id="spFt9Daq1wORSKf747if-22" value="" style="endArrow=oval;html=1;rounded=0;fillColor=#dae8fc;strokeColor=#6c8ebf;startArrow=blockThin;startFill=1;endFill=1;startSize=8;endSize=4;strokeWidth=1.25;" edge="1" parent="1">
          <mxGeometry width="50" height="50" relative="1" as="geometry">
            <mxPoint x="1270" y="40" as="sourcePoint" />
            <mxPoint x="1100" y="120" as="targetPoint" />
            <Array as="points">
              <mxPoint x="1270" y="90" />
              <mxPoint x="1100" y="90" />
            </Array>
          </mxGeometry>
        </mxCell>
        <mxCell id="spFt9Daq1wORSKf747if-7" style="edgeStyle=orthogonalEdgeStyle;rounded=0;orthogonalLoop=1;jettySize=auto;html=1;exitX=1;exitY=0.5;exitDx=0;exitDy=0;entryX=0;entryY=0.5;entryDx=0;entryDy=0;fillColor=#e1d5e7;strokeColor=#9673a6;strokeWidth=1.25;endArrow=blockThin;endFill=1;endSize=8;startSize=4;startArrow=oval;startFill=1;" edge="1" parent="1" source="spFt9Daq1wORSKf747if-1" target="spFt9Daq1wORSKf747if-6">
          <mxGeometry relative="1" as="geometry" />
        </mxCell>
        <mxCell id="spFt9Daq1wORSKf747if-26" value="Serwowanie&lt;br style=&quot;font-size: 10px;&quot;&gt;strony" style="edgeLabel;html=1;align=center;verticalAlign=middle;resizable=0;points=[];fontSize=10;fontFamily=Arimo;" vertex="1" connectable="0" parent="spFt9Daq1wORSKf747if-7">
          <mxGeometry x="-0.2787" y="1" relative="1" as="geometry">
            <mxPoint x="17" y="1" as="offset" />
          </mxGeometry>
        </mxCell>
        <mxCell id="spFt9Daq1wORSKf747if-8" style="edgeStyle=orthogonalEdgeStyle;rounded=0;orthogonalLoop=1;jettySize=auto;html=1;exitX=0.5;exitY=0;exitDx=0;exitDy=0;entryX=0.5;entryY=1;entryDx=0;entryDy=0;fillColor=#e1d5e7;strokeColor=#9673a6;strokeWidth=1.25;endArrow=blockThin;endFill=1;endSize=8;startSize=4;startArrow=oval;startFill=1;" edge="1" parent="1" source="spFt9Daq1wORSKf747if-2" target="spFt9Daq1wORSKf747if-1">
          <mxGeometry relative="1" as="geometry" />
        </mxCell>
        <mxCell id="spFt9Daq1wORSKf747if-25" value="Transmisja danych&lt;br style=&quot;font-size: 10px;&quot;&gt;(I2C)" style="edgeLabel;html=1;align=center;verticalAlign=middle;resizable=0;points=[];fontFamily=Arimo;fontSize=10;" vertex="1" connectable="0" parent="spFt9Daq1wORSKf747if-8">
          <mxGeometry x="0.2733" y="-1" relative="1" as="geometry">
            <mxPoint x="27" y="1" as="offset" />
          </mxGeometry>
        </mxCell>
      </root>
    </mxGraphModel>
  </diagram>
</mxfile>
